<svg id="_Icons_Arrow_Left" data-name="_Icons / Arrow Left" xmlns="http://www.w3.org/2000/svg" xmlns:xlink="http://www.w3.org/1999/xlink" width="13.384" height="11.153" viewBox="0 0 13.384 11.153">
  <defs>
    <clipPath id="clip-path">
      <path id="Arrow_Left" data-name="Arrow Left" d="M7.441,9.842a.782.782,0,0,0,0,1.086.727.727,0,0,0,1.055,0L13.163,6.12a.78.78,0,0,0,0-1.088L8.49.227a.73.73,0,0,0-1.055,0,.781.781,0,0,0,0,1.086l3.4,3.5H.745a.765.765,0,0,0,0,1.529h10.1Z" transform="translate(0)" fill="#fff"/>
    </clipPath>
  </defs>
  <path id="Arrow_Left-2" data-name="Arrow Left" d="M7.441,9.842a.782.782,0,0,0,0,1.086.727.727,0,0,0,1.055,0L13.163,6.12a.78.78,0,0,0,0-1.088L8.49.227a.73.73,0,0,0-1.055,0,.781.781,0,0,0,0,1.086l3.4,3.5H.745a.765.765,0,0,0,0,1.529h10.1Z" transform="translate(0)" fill="#fff"/>
</svg>
