<svg width="28" height="28" viewBox="0 0 28 28"  xmlns="http://www.w3.org/2000/svg">
<path d="M10.7406 23.9022V20.3349C10.7406 19.4242 11.4842 18.686 12.4015 18.686H15.7547C16.1952 18.686 16.6177 18.8597 16.9292 19.169C17.2407 19.4782 17.4156 19.8976 17.4156 20.3349V23.9022C17.4129 24.2808 17.5624 24.6449 17.8311 24.9135C18.0998 25.1822 18.4654 25.3333 18.8468 25.3333H21.1345C22.2029 25.3361 23.2285 24.9167 23.985 24.1676C24.7415 23.4186 25.1667 22.4015 25.1667 21.3408V11.178C25.1667 10.3212 24.7841 9.50848 24.1221 8.95878L16.3397 2.78851C14.9859 1.70666 13.0463 1.74159 11.733 2.87148L4.12818 8.95878C3.43486 9.49228 3.02048 10.3074 3 11.178V21.3304C3 23.5412 4.80528 25.3333 7.0322 25.3333H9.26767C10.0598 25.3333 10.7035 24.6989 10.7092 23.9126L10.7406 23.9022Z" />
</svg>
