<svg width="28" height="28" viewBox="0 0 28 28" fill="none" xmlns="http://www.w3.org/2000/svg">
<g clip-path="url(#clip0)">
<path d="M15.1378 3.10527C9.34951 3.0884 4.60871 7.58577 4.23512 13.2756H2.71956C2.16648 13.2756 1.82077 13.8743 2.09734 14.3533L3.78531 17.277L5.47328 20.2006C5.74984 20.6796 6.4412 20.6796 6.71776 20.2006L8.40573 17.277L10.0937 14.3533C10.3703 13.8743 10.0246 13.2756 9.47148 13.2756H7.67471C8.04404 9.45735 11.3012 6.47108 15.229 6.53498C19.204 6.59962 22.4548 9.80872 22.5682 13.7826C22.6885 17.9982 19.2943 21.4659 15.1054 21.4659C14.0312 21.4659 13.0093 21.2377 12.0855 20.8273C11.284 20.4714 10.3433 20.7784 9.90484 21.5379C9.39695 22.4176 9.75798 23.5483 10.6862 23.9608C12.0369 24.561 13.5321 24.8946 15.1054 24.8946C21.1147 24.8946 25.9876 20.0293 26 14.023C26.0124 7.98974 21.171 3.1229 15.1378 3.10527V3.10527Z" fill="#8D8D8D"/>
<path d="M17.9375 13.5298H17.1134C16.9012 12.9316 16.4264 12.4571 15.8281 12.2449V11.3888C15.8281 11.0005 15.5133 10.6857 15.125 10.6857C14.7367 10.6857 14.4219 11.0005 14.4219 11.3888V12.2445C13.6035 12.5348 13.0156 13.3163 13.0156 14.2329C13.0156 15.3961 13.9618 16.3423 15.125 16.3423C15.1293 16.3423 15.1335 16.3417 15.1378 16.3416V16.342C16.0489 16.3365 16.8245 15.7505 17.1134 14.9361H17.9375C18.3258 14.9361 18.6406 14.6213 18.6406 14.2329C18.6406 13.8446 18.3258 13.5298 17.9375 13.5298V13.5298ZM15.1378 14.9354C15.1335 14.9355 15.1293 14.9361 15.125 14.9361C14.7372 14.9361 14.4219 14.6206 14.4219 14.2329C14.4219 13.8452 14.7372 13.5298 15.125 13.5298C15.1293 13.5298 15.1335 13.5304 15.1378 13.5305C15.5196 13.5374 15.8281 13.8496 15.8281 14.2329C15.8281 14.6163 15.5196 14.9285 15.1378 14.9354Z" />
</g>
<defs>
<clipPath id="clip0">
<rect width="24" height="24" fill="white" transform="translate(2 2)"/>
</clipPath>
</defs>
</svg>
