<svg width="24" height="24" viewBox="0 0 24 24" fill="none" xmlns="http://www.w3.org/2000/svg">
<path fill-rule="evenodd" clip-rule="evenodd" d="M12 22C6.486 22 2 17.514 2 12C2 6.486 6.486 2 12 2C17.514 2 22 6.486 22 12C22 17.514 17.514 22 12 22ZM12 20.5C16.687 20.5 20.5 16.687 20.5 12C20.5 7.313 16.687 3.5 12 3.5C7.313 3.5 3.5 7.313 3.5 12C3.5 16.687 7.313 20.5 12 20.5ZM11.4683 14.5736L7.9973 11.0866C7.7053 10.7926 7.7063 10.3186 7.9993 10.0266C8.1453 9.8806 8.3373 9.8076 8.5283 9.8076C8.7203 9.8076 8.9133 9.8806 9.0593 10.0286L12.0003 12.9816L14.9393 10.0286C15.2313 9.7346 15.7063 9.7346 16.0003 10.0266C16.2933 10.3186 16.2953 10.7926 16.0023 11.0866L12.5313 14.5736C12.2503 14.8566 11.7503 14.8566 11.4683 14.5736Z" fill="#272727"/>
</svg>
