<svg width="13" height="13" viewBox="0 0 13 13" fill="none" xmlns="http://www.w3.org/2000/svg">
<path d="M10.1849 7.73756C10.0295 7.88814 9.95809 8.10591 9.99348 8.31948L10.5268 11.2711C10.5718 11.5213 10.4662 11.7744 10.2568 11.919C10.0517 12.069 9.77871 12.087 9.55494 11.967L6.89789 10.5812C6.8055 10.532 6.70291 10.5056 6.59793 10.5026H6.43535C6.37896 10.511 6.32376 10.529 6.27337 10.5566L3.61572 11.949C3.48433 12.015 3.33555 12.0384 3.18977 12.015C2.83462 11.9478 2.59765 11.6095 2.65584 11.2525L3.18977 8.30088C3.22517 8.08551 3.15378 7.86654 2.9984 7.71356L0.832081 5.61384C0.650904 5.43806 0.587912 5.17409 0.670702 4.93592C0.751091 4.69836 0.956264 4.52498 1.20403 4.48598L4.18564 4.05344C4.41241 4.03004 4.61159 3.89206 4.71357 3.68809L6.0274 0.994439C6.0586 0.934447 6.09879 0.879254 6.14739 0.83246L6.20138 0.790466C6.22958 0.75927 6.26197 0.733473 6.29797 0.712476L6.36336 0.688479L6.46534 0.646484H6.71791C6.94348 0.669881 7.14206 0.804864 7.24584 1.00644L8.57707 3.68809C8.67306 3.88426 8.85963 4.02044 9.075 4.05344L12.0566 4.48598C12.3086 4.52198 12.5192 4.69596 12.6025 4.93592C12.6811 5.17649 12.6133 5.44046 12.4286 5.61384L10.1849 7.73756Z" fill="#8D8D8D"/>
</svg>
