<svg width="36" height="36" viewBox="0 0 36 36" fill="none" xmlns="http://www.w3.org/2000/svg">
<rect width="36" height="36" rx="18" fill="#F7F7F7"/>
<path d="M23.2043 15.5228C23.3538 15.5228 23.4895 15.5881 23.5967 15.6983C23.6967 15.8161 23.747 15.9623 23.7324 16.1168C23.7324 16.1678 23.3327 21.2228 23.1044 23.3505C22.9614 24.6563 22.1197 25.449 20.857 25.4708C19.8862 25.4925 18.9372 25.5 18.0028 25.5C17.0108 25.5 16.0407 25.4925 15.099 25.4708C13.8787 25.4415 13.0363 24.6345 12.9006 23.3505C12.6657 21.2153 12.2733 16.1678 12.266 16.1168C12.2587 15.9623 12.3083 15.8161 12.409 15.6983C12.5082 15.5881 12.6511 15.5228 12.8014 15.5228H23.2043ZM19.5485 10.5C20.2116 10.5 20.8039 10.9627 20.9753 11.6227L21.0978 12.1702C21.197 12.6165 21.5836 12.9322 22.0286 12.9322H24.2153C24.5071 12.9322 24.75 13.1745 24.75 13.4827V13.7677C24.75 14.0685 24.5071 14.3182 24.2153 14.3182H11.7854C11.4929 14.3182 11.25 14.0685 11.25 13.7677V13.4827C11.25 13.1745 11.4929 12.9322 11.7854 12.9322H13.9722C14.4164 12.9322 14.803 12.6165 14.9029 12.171L15.0174 11.6595C15.1954 10.9627 15.7811 10.5 16.4515 10.5H19.5485Z" fill="#272727"/>
</svg>
