<svg width="12" height="12" viewBox="0 0 12 12" fill="none" xmlns="http://www.w3.org/2000/svg">
<path d="M6.00002 1C3.24502 1 1.00002 3.245 1.00002 6C1.00002 8.755 3.24502 11 6.00002 11C8.75502 11 11 8.755 11 6C11 3.245 8.75502 1 6.00002 1ZM8.39002 4.85L5.55502 7.685C5.48502 7.755 5.39002 7.795 5.29002 7.795C5.19002 7.795 5.09502 7.755 5.02502 7.685L3.61002 6.27C3.46502 6.125 3.46502 5.885 3.61002 5.74C3.75502 5.595 3.99502 5.595 4.14002 5.74L5.29002 6.89L7.86002 4.32C8.00502 4.175 8.24502 4.175 8.39002 4.32C8.53502 4.465 8.53502 4.7 8.39002 4.85Z" fill="#D1D1D1"/>
</svg>
