<svg width="18" height="18" viewBox="0 0 18 18" fill="none" xmlns="http://www.w3.org/2000/svg">
<path d="M15.9375 13.8525L14.7 14.145C14.4225 14.2125 14.205 14.4225 14.145 14.7L13.8825 15.8025C13.74 16.4025 12.975 16.59 12.5775 16.1175L10.335 13.5375C10.155 13.3275 10.2525 12.9975 10.5225 12.93C11.85 12.6075 13.0425 11.865 13.92 10.8075C14.0625 10.635 14.3175 10.6125 14.475 10.77L16.14 12.435C16.71 13.005 16.5075 13.7175 15.9375 13.8525Z" fill="#8D8D8D"/>
<path d="M2.02504 13.8525L3.26254 14.145C3.54004 14.2125 3.75754 14.4225 3.81754 14.7L4.08004 15.8025C4.22254 16.4025 4.98754 16.59 5.38504 16.1175L7.62754 13.5375C7.80754 13.3275 7.71004 12.9975 7.44004 12.93C6.11254 12.6075 4.92004 11.865 4.04254 10.8075C3.90004 10.635 3.64504 10.6125 3.48754 10.77L1.82254 12.435C1.25254 13.005 1.45504 13.7175 2.02504 13.8525Z" fill="#8D8D8D"/>
<path d="M8.99999 1.5C6.09749 1.5 3.74999 3.8475 3.74999 6.75C3.74999 7.8375 4.07249 8.835 4.62749 9.6675C5.43749 10.8675 6.71999 11.715 8.21249 11.9325C8.46749 11.9775 8.72999 12 8.99999 12C9.26999 12 9.53249 11.9775 9.78749 11.9325C11.28 11.715 12.5625 10.8675 13.3725 9.6675C13.9275 8.835 14.25 7.8375 14.25 6.75C14.25 3.8475 11.9025 1.5 8.99999 1.5ZM11.295 6.585L10.6725 7.2075C10.5675 7.3125 10.5075 7.515 10.545 7.665L10.725 8.4375C10.8675 9.045 10.545 9.285 10.005 8.9625L9.25499 8.52C9.11999 8.4375 8.89499 8.4375 8.75999 8.52L8.00999 8.9625C7.46999 9.2775 7.14749 9.045 7.28999 8.4375L7.46999 7.665C7.49999 7.5225 7.44749 7.3125 7.34249 7.2075L6.70499 6.585C6.33749 6.2175 6.45749 5.85 6.96749 5.7675L7.76999 5.6325C7.90499 5.61 8.06249 5.49 8.12249 5.37L8.56499 4.485C8.80499 4.005 9.19499 4.005 9.43499 4.485L9.87749 5.37C9.93749 5.49 10.095 5.61 10.2375 5.6325L11.04 5.7675C11.5425 5.85 11.6625 6.2175 11.295 6.585Z" fill="#8D8D8D"/>
</svg>
