<svg width="24" height="24" viewBox="0 0 24 24" fill="none" xmlns="http://www.w3.org/2000/svg">
<path fill-rule="evenodd" clip-rule="evenodd" d="M12.0022 9.64C10.6703 9.64 9.59025 10.7194 9.59025 12.052C9.59025 13.3838 10.6705 14.464 12.0022 14.464C13.334 14.464 14.4142 13.3838 14.4142 12.052C14.4142 10.7194 13.3342 9.64 12.0022 9.64ZM8.09025 12.052C8.09025 9.89063 9.84219 8.14 12.0022 8.14C14.1623 8.14 15.9142 9.89063 15.9142 12.052C15.9142 14.2122 14.1625 15.964 12.0022 15.964C9.84203 15.964 8.09025 14.2122 8.09025 12.052Z" fill="#272727"/>
<path fill-rule="evenodd" clip-rule="evenodd" d="M4.97577 6.59826C6.77017 5.08118 9.25098 4 12.0022 4C14.7529 4 17.2337 5.08034 19.0282 6.59706C20.8033 8.09726 22.0042 10.114 22.0042 12.052C22.0042 13.99 20.8033 16.0067 19.0282 17.5069C17.2337 19.0237 14.7529 20.104 12.0022 20.104C9.25098 20.104 6.77017 19.0228 4.97577 17.5057C3.20099 16.0052 2.00024 13.9885 2.00024 12.052C2.00024 10.1155 3.20099 8.09876 4.97577 6.59826ZM5.94422 7.74374C4.3705 9.07424 3.50024 10.7085 3.50024 12.052C3.50024 13.3955 4.3705 15.0298 5.94422 16.3603C7.49832 17.6742 9.64351 18.604 12.0022 18.604C14.3606 18.604 16.5058 17.6748 18.06 16.3613C19.6337 15.0313 20.5042 13.397 20.5042 12.052C20.5042 10.707 19.6337 9.07274 18.06 7.74269C16.5058 6.42916 14.3606 5.5 12.0022 5.5C9.64351 5.5 7.49832 6.42982 5.94422 7.74374Z" fill="#272727"/>
<path fill-rule="evenodd" clip-rule="evenodd" d="M19.5303 4.46967C19.8232 4.76256 19.8232 5.23744 19.5303 5.53033L5.53033 19.5303C5.23744 19.8232 4.76256 19.8232 4.46967 19.5303C4.17678 19.2374 4.17678 18.7626 4.46967 18.4697L18.4697 4.46967C18.7626 4.17678 19.2374 4.17678 19.5303 4.46967Z" fill="#272727"/>
</svg>
