<svg width="16" height="16" viewBox="0 0 16 16" fill="none" xmlns="http://www.w3.org/2000/svg">
<path d="M8.00004 15.1667C4.04671 15.1667 0.833374 11.9534 0.833374 8.00004C0.833374 4.04671 4.04671 0.833374 8.00004 0.833374C11.9534 0.833374 15.1667 4.04671 15.1667 8.00004C15.1667 11.9534 11.9534 15.1667 8.00004 15.1667ZM8.00004 1.83337C4.60004 1.83337 1.83337 4.60004 1.83337 8.00004C1.83337 11.4 4.60004 14.1667 8.00004 14.1667C11.4 14.1667 14.1667 11.4 14.1667 8.00004C14.1667 4.60004 11.4 1.83337 8.00004 1.83337Z" fill="#AFAFAF"/>
<path d="M7.05333 10.3866C6.92 10.3866 6.79334 10.3333 6.7 10.2399L4.81333 8.35328C4.62 8.15994 4.62 7.83994 4.81333 7.64661C5.00667 7.45328 5.32667 7.45328 5.52 7.64661L7.05333 9.17994L10.48 5.75328C10.6733 5.55994 10.9933 5.55994 11.1867 5.75328C11.38 5.94661 11.38 6.26661 11.1867 6.45994L7.40667 10.2399C7.31333 10.3333 7.18667 10.3866 7.05333 10.3866Z" fill="#AFAFAF"/>
</svg>
