<svg width="96" height="96" viewBox="0 0 96 96" fill="none" xmlns="http://www.w3.org/2000/svg">
<path d="M77.9199 11.2792L79.0399 13.5592C79.5999 14.6792 80.9999 15.7192 82.2399 15.9592L83.7599 16.1992C88.3199 16.9592 89.3999 20.3192 86.1199 23.6392L84.7199 25.0392C83.7999 25.9992 83.2799 27.8392 83.5599 29.1192L83.7599 29.9592C84.9999 35.4792 82.0799 37.5992 77.2799 34.7192L76.2399 34.1192C74.9999 33.3992 72.9999 33.3992 71.7599 34.1192L70.7199 34.7192C65.8799 37.6392 62.9599 35.4792 64.2399 29.9592L64.4399 29.1192C64.7199 27.8392 64.1999 25.9992 63.2799 25.0392L61.8799 23.5992C58.5999 20.2792 59.6799 16.9192 64.2399 16.1592L65.7599 15.9192C66.9599 15.7192 68.3999 14.6392 68.9599 13.5192L70.0799 11.2392C72.2399 6.91917 75.7599 6.91917 77.9199 11.2792Z" fill="#CF5E35"/>
<path d="M86.28 40.36C84.84 41.4 80.8 43.32 75.04 40.36C74.4 40.04 73.6 40 72.96 40.36C70.68 41.52 68.6 42 66.96 42C64.4 42 62.6 41 61.72 40.36C60.24 39.28 57.12 36.2 58.2 29.68C58.32 29 58.12 28.32 57.68 27.8C54.92 24.64 53.4 20.4 54.48 17.08C54.88 15.76 54.04 14 52.68 14H28C16 14 8 20 8 34V62C8 76 16 82 28 82H68C80 82 88 76 88 62V41.08C88 40.32 86.92 39.92 86.28 40.36ZM57.36 48.36C54.72 50.48 51.36 51.52 48 51.52C44.64 51.52 41.24 50.48 38.64 48.36L26.12 38.36C24.84 37.32 24.64 35.4 25.64 34.12C26.68 32.84 28.56 32.6 29.84 33.64L42.36 43.64C45.4 46.08 50.56 46.08 53.6 43.64C54.88 42.6 56.76 42.8 57.8 44.12C58.88 45.4 58.68 47.32 57.36 48.36Z" fill="#002C6C"/>
</svg>
