<svg width="18" height="18" viewBox="0 0 18 18" fill="none" xmlns="http://www.w3.org/2000/svg">
<path d="M5.00248 10.5H2.99998C2.17498 10.5 1.49998 11.175 1.49998 12V15.75C1.49998 16.1625 1.83748 16.5 2.24998 16.5H5.00248C5.41498 16.5 5.75248 16.1625 5.75248 15.75V11.25C5.75248 10.8375 5.41498 10.5 5.00248 10.5Z" fill="#8D8D8D"/>
<path d="M9.99754 7.5H7.99504C7.17004 7.5 6.49504 8.175 6.49504 9V15.75C6.49504 16.1625 6.83254 16.5 7.24504 16.5H10.7475C11.16 16.5 11.4975 16.1625 11.4975 15.75V9C11.4975 8.175 10.83 7.5 9.99754 7.5Z" fill="#8D8D8D"/>
<path d="M15 12.75H12.9975C12.585 12.75 12.2475 13.0875 12.2475 13.5V15.75C12.2475 16.1625 12.585 16.5 12.9975 16.5H15.75C16.1625 16.5 16.5 16.1625 16.5 15.75V14.25C16.5 13.425 15.825 12.75 15 12.75Z" fill="#8D8D8D"/>
<path d="M11.2575 3.63736C11.49 3.40486 11.58 3.12736 11.505 2.88736C11.43 2.64736 11.1975 2.47486 10.8675 2.42236L10.1475 2.30236C10.1175 2.30236 10.05 2.24986 10.035 2.21986L9.63753 1.42486C9.33753 0.817363 8.65503 0.817363 8.35503 1.42486L7.95753 2.21986C7.95003 2.24986 7.88253 2.30236 7.85253 2.30236L7.13253 2.42236C6.80253 2.47486 6.57753 2.64736 6.49503 2.88736C6.42003 3.12736 6.51003 3.40486 6.74253 3.63736L7.29753 4.19986C7.32753 4.22236 7.35003 4.31236 7.34253 4.34236L7.18503 5.03236C7.06503 5.54986 7.26003 5.78236 7.38753 5.87236C7.51503 5.96236 7.79253 6.08236 8.25003 5.81236L8.92503 5.41486C8.95503 5.39236 9.05253 5.39236 9.08253 5.41486L9.75003 5.81236C9.96003 5.93986 10.1325 5.97736 10.2675 5.97736C10.425 5.97736 10.5375 5.91736 10.605 5.87236C10.7325 5.78236 10.9275 5.54986 10.8075 5.03236L10.65 4.34236C10.6425 4.30486 10.665 4.22236 10.695 4.19986L11.2575 3.63736Z" fill="#8D8D8D"/>
</svg>
