<svg width="13" height="12" viewBox="0 0 13 12" fill="none" xmlns="http://www.w3.org/2000/svg">
<path d="M10.1824 6.72794L10.1824 6.72792L10.1782 6.73202C9.90446 6.99729 9.7794 7.38001 9.84151 7.75475L9.84145 7.75476L9.84275 7.7619L10.376 10.7131C10.376 10.7132 10.376 10.7133 10.3761 10.7134C10.3861 10.77 10.3624 10.8277 10.314 10.8611L10.3139 10.8609L10.3031 10.8689C10.2544 10.9045 10.1881 10.9097 10.1325 10.8799L10.1325 10.8798L10.1275 10.8772L7.47205 9.49224C7.30987 9.40631 7.13217 9.36142 6.9535 9.35632L6.94636 9.35611H6.93922H6.77664H6.73961L6.70299 9.36157C6.59286 9.37797 6.4826 9.41313 6.37926 9.46897L3.7299 10.857C3.6945 10.8742 3.65556 10.8806 3.61741 10.8758C3.53351 10.8565 3.47764 10.7755 3.49018 10.6893L4.02308 7.7434L4.02314 7.74341L4.02445 7.73549C4.08617 7.35989 3.96168 6.97779 3.69048 6.71078L3.69049 6.71077L3.68768 6.70805L1.52154 4.60849C1.52151 4.60846 1.52148 4.60843 1.52145 4.60841C1.47939 4.56754 1.46556 4.50745 1.48428 4.45361L1.48561 4.4497C1.50634 4.38846 1.55849 4.34434 1.62107 4.33374L4.58993 3.90305C4.98233 3.85858 5.32555 3.61827 5.50208 3.26521L5.5021 3.26522L5.50426 3.26079L6.81434 0.574826C6.81818 0.567889 6.82204 0.562077 6.82569 0.557288L6.84965 0.538655L6.88423 0.511756L6.88852 0.507015L6.89503 0.504334L6.90555 0.5H7.02492C7.07525 0.510353 7.11776 0.542225 7.14146 0.586655L8.46996 3.26282C8.63866 3.60639 8.96499 3.84365 9.34058 3.90119L9.34058 3.9012L9.34451 3.90178L12.3261 4.33432L12.3272 4.33447C12.392 4.34372 12.4468 4.38777 12.4699 4.44903C12.4859 4.50358 12.4702 4.5629 12.4277 4.60273L12.4262 4.60422L10.1824 6.72794Z" fill="#FBD577" stroke="#FFAC30"/>
</svg>
