<svg width="28" height="28" viewBox="0 0 28 28" fill="none" xmlns="http://www.w3.org/2000/svg">
<path d="M19.18 3.61658C17.0683 3.61658 15.1783 4.64324 14 6.21824C12.8217 4.64324 10.9317 3.61658 8.82001 3.61658C5.23834 3.61658 2.33334 6.53324 2.33334 10.1382C2.33334 11.5266 2.55501 12.8099 2.94001 13.9999C4.78334 19.8332 10.465 23.3216 13.2767 24.2782C13.6733 24.4182 14.3267 24.4182 14.7233 24.2782C17.535 23.3216 23.2167 19.8332 25.06 13.9999C25.445 12.8099 25.6667 11.5266 25.6667 10.1382C25.6667 6.53324 22.7617 3.61658 19.18 3.61658Z" fill="#6B6B6B"/>
<circle cx="8" cy="20" r="5" fill="#CF5E35" stroke="white" stroke-width="2"/>
</svg>
