<svg width="261" height="221" viewBox="0 0 261 221" fill="none" xmlns="http://www.w3.org/2000/svg">
<path d="M167.24 117.191L161.8 110.871C160.76 109.671 159.92 107.431 159.92 105.831V99.0312C159.92 94.7912 156.44 91.3112 152.2 91.3112H145.4C143.84 91.3112 141.56 90.4712 140.36 89.4312L134.04 83.9912C131.28 81.6312 126.76 81.6312 123.96 83.9912L117.68 89.4712C116.48 90.4712 114.2 91.3112 112.64 91.3112H105.72C101.48 91.3112 98 94.7912 98 99.0312V105.871C98 107.431 97.16 109.671 96.16 110.871L90.76 117.231C88.44 119.991 88.44 124.471 90.76 127.231L96.16 133.591C97.16 134.791 98 137.031 98 138.591V145.431C98 149.671 101.48 153.151 105.72 153.151H112.64C114.2 153.151 116.48 153.991 117.68 155.031L124 160.471C126.76 162.831 131.28 162.831 134.08 160.471L140.4 155.031C141.6 153.991 143.84 153.151 145.44 153.151H152.24C156.48 153.151 159.96 149.671 159.96 145.431V138.631C159.96 137.071 160.8 134.791 161.84 133.591L167.28 127.271C169.6 124.511 169.6 119.951 167.24 117.191ZM145.64 114.671L126.32 133.991C125.76 134.551 125 134.871 124.2 134.871C123.4 134.871 122.64 134.551 122.08 133.991L112.4 124.311C111.24 123.151 111.24 121.231 112.4 120.071C113.56 118.911 115.48 118.911 116.64 120.071L124.2 127.631L141.4 110.431C142.56 109.271 144.48 109.271 145.64 110.431C146.8 111.591 146.8 113.511 145.64 114.671Z" fill="#002C6C"/>
<circle opacity="0.89" cx="216.442" cy="187.675" r="10.3745" transform="rotate(-167 216.442 187.675)" fill="#CF5E35"/>
<path fill-rule="evenodd" clip-rule="evenodd" d="M212.337 101.037C213.274 102.051 213.211 103.633 212.196 104.569C210.546 106.093 207.989 110.398 211.12 115.407C214.219 120.365 213.351 125.855 210.145 129.309C206.897 132.806 201.48 133.974 196.233 130.887C195.043 130.187 194.646 128.655 195.346 127.465C196.046 126.275 197.578 125.878 198.768 126.578C202.021 128.491 204.854 127.659 206.481 125.906C208.149 124.11 208.782 121.1 206.88 118.057C202.012 110.267 206.122 103.372 208.805 100.895C209.819 99.9589 211.401 100.022 212.337 101.037Z" fill="#A941CD"/>
<path opacity="0.74" d="M59.9289 21.5962L65.4218 30.7379L62.1324 35.2028L53.7126 25.3314L54.2163 12.0889L60.2883 11.4266L59.9289 21.5962Z" fill="#386FBE"/>
<circle opacity="0.8" cx="158.823" cy="9.25342" r="6.74343" transform="rotate(149 158.823 9.25342)" fill="#CF5E35"/>
<circle opacity="0.76" cx="25.7571" cy="67.9895" r="11.9307" transform="rotate(106 25.7571 67.9895)" fill="#CF5E35"/>
<path opacity="0.86" fill-rule="evenodd" clip-rule="evenodd" d="M49.3224 96.1444C50.4409 96.7464 50.8596 98.1412 50.2576 99.2597C49.2783 101.079 48.3437 105.59 52.5681 109.01C56.7482 112.394 57.6382 117.43 55.8832 121.394C54.1056 125.409 49.7426 128.048 44.2542 126.934C43.0093 126.682 42.2048 125.468 42.4573 124.223C42.7098 122.978 43.9237 122.174 45.1686 122.426C48.5718 123.116 50.7863 121.544 51.6769 119.532C52.5901 117.469 52.239 114.662 49.6735 112.585C43.1049 107.267 44.6149 100.038 46.207 97.0796C46.809 95.9611 48.2038 95.5424 49.3224 96.1444Z" fill="#A941CD"/>
<path opacity="0.92" d="M167.663 59.3095L179.042 64.6155L178.771 71.1385L164.055 67.047L155.829 53.7913L161.319 49.1478L167.663 59.3095Z" fill="#386FBE"/>
<circle opacity="0.79" cx="247.833" cy="67.0654" r="10.4783" transform="rotate(-75 247.833 67.0654)" fill="#CF5E35"/>
<circle opacity="0.8" cx="9.58463" cy="146.694" r="6.43219" transform="rotate(-53 9.58463 146.694)" fill="#CF5E35"/>
<path opacity="0.71" fill-rule="evenodd" clip-rule="evenodd" d="M81.31 191.221C80.5016 190.984 80.0377 190.138 80.274 189.329C80.6583 188.014 80.6426 184.96 77.4314 183.324C74.2538 181.706 72.9824 178.562 73.5741 175.749C74.1735 172.9 76.6394 170.588 80.3524 170.553C81.1946 170.545 81.8837 171.222 81.8915 172.064C81.8994 172.906 81.223 173.595 80.3808 173.603C78.0785 173.624 76.8591 174.95 76.5588 176.377C76.2509 177.841 76.8657 179.613 78.8158 180.607C83.8091 183.15 83.8263 188.047 83.2015 190.185C82.9653 190.993 82.1184 191.457 81.31 191.221Z" fill="#A941CD"/>
<path opacity="0.86" d="M165.604 170.491L160.648 177.068L156.5 176.004L161.132 167.121L170.758 163.651L172.989 167.806L165.604 170.491Z" fill="#386FBE"/>
<circle opacity="0.84" cx="97.9042" cy="67.1366" r="9.85578" transform="rotate(49 97.9042 67.1366)" fill="#CF5E35"/>
<path opacity="0.81" d="M41.836 201.872L49.8505 212.903L46.1585 218.956L34.335 207.322L33.501 190.4L41.1605 188.88L41.836 201.872Z" fill="#386FBE"/>
<path opacity="0.9" d="M135.566 212.517L125.173 212.336L123.181 207.311L135.69 205.45L146.376 212.706L143.787 218.067L135.566 212.517Z" fill="#386FBE"/>
</svg>
