<svg width="13" height="12" viewBox="0 0 13 12" fill="none" xmlns="http://www.w3.org/2000/svg">
<path d="M9.84113 6.72794L9.84111 6.72792L9.83688 6.73202C9.56316 6.99729 9.43809 7.38001 9.5002 7.75475L9.50015 7.75476L9.50144 7.7619L10.0347 10.7131C10.0347 10.7132 10.0347 10.7133 10.0347 10.7134C10.0448 10.77 10.0211 10.8277 9.97272 10.8611L9.97262 10.8609L9.96177 10.8689C9.91308 10.9045 9.84683 10.9097 9.7912 10.8799L9.79122 10.8798L9.78615 10.8772L7.13074 9.49224C6.96856 9.40631 6.79087 9.36142 6.61219 9.35632L6.60505 9.35611H6.59791H6.43533H6.3983L6.36168 9.36157C6.25156 9.37797 6.14129 9.41313 6.03795 9.46897L3.38859 10.857C3.35319 10.8742 3.31426 10.8806 3.2761 10.8758C3.1922 10.8565 3.13633 10.7755 3.14887 10.6893L3.68177 7.7434L3.68184 7.74341L3.68314 7.73549C3.74487 7.35989 3.62037 6.97779 3.34917 6.71078L3.34918 6.71077L3.34637 6.70805L1.18023 4.60849C1.1802 4.60846 1.18017 4.60843 1.18014 4.60841C1.13809 4.56754 1.12425 4.50745 1.14297 4.45361L1.14431 4.4497C1.16503 4.38846 1.21718 4.34434 1.27976 4.33374L4.24862 3.90305C4.64102 3.85858 4.98424 3.61827 5.16077 3.26521L5.16079 3.26522L5.16295 3.26079L6.47304 0.574826C6.47687 0.567889 6.48073 0.562077 6.48438 0.557288L6.50834 0.538655L6.54292 0.511756L6.54721 0.507015L6.55372 0.504334L6.56424 0.5H6.68361C6.73394 0.510353 6.77645 0.542225 6.80015 0.586655L8.12865 3.26282C8.29735 3.60639 8.62368 3.84365 8.99927 3.90119L8.99927 3.9012L9.00321 3.90178L11.9848 4.33432L11.9859 4.33447C12.0506 4.34372 12.1054 4.38777 12.1286 4.44903C12.1446 4.50358 12.1289 4.5629 12.0864 4.60273L12.0848 4.60422L9.84113 6.72794Z" fill="#FFAC30" stroke="#FFAC30"/>
</svg>
