<svg width="16" height="16" viewBox="0 0 16 16" fill="none" xmlns="http://www.w3.org/2000/svg">
<path d="M3.99996 8.66663C2.15996 8.66663 0.666626 10.1533 0.666626 12C0.666626 13.8466 2.15996 15.3333 3.99996 15.3333C5.83996 15.3333 7.33329 13.84 7.33329 12C7.33329 10.16 5.84663 8.66663 3.99996 8.66663ZM2.63996 10.64H3.99996C4.25329 10.64 4.45329 10.8466 4.45329 11.0933C4.45329 11.34 4.25329 11.5466 3.99996 11.5466H2.63996C2.38663 11.5466 2.18663 11.34 2.18663 11.0933C2.18663 10.8466 2.38663 10.64 2.63996 10.64ZM5.35996 13.36H2.63996C2.38663 13.36 2.18663 13.1533 2.18663 12.9066C2.18663 12.66 2.39329 12.4533 2.63996 12.4533H5.36663C5.61996 12.4533 5.81996 12.66 5.81996 12.9066C5.81996 13.1533 5.61329 13.36 5.35996 13.36Z" fill="#8D8D8D"/>
<path d="M11.3334 2H4.66671C2.66671 2 1.33337 3 1.33337 5.33333V7.42667C1.33337 7.91333 1.83337 8.22 2.28004 8.02667C3.01337 7.70667 3.84671 7.58667 4.72004 7.72667C6.46671 8.01333 7.89337 9.39333 8.24671 11.1267C8.34671 11.6333 8.36004 12.1267 8.29337 12.6C8.24004 12.9933 8.56004 13.34 8.95337 13.34H11.3334C13.3334 13.34 14.6667 12.34 14.6667 10.0067V5.33333C14.6667 3 13.3334 2 11.3334 2ZM11.6467 5.72667L9.56004 7.39333C9.12004 7.74667 8.56004 7.92 8.00004 7.92C7.44004 7.92 6.87337 7.74667 6.44004 7.39333L4.35337 5.72667C4.14004 5.55333 4.10671 5.23333 4.27337 5.02C4.44671 4.80667 4.76004 4.76667 4.97337 4.94L7.06004 6.60667C7.56671 7.01333 8.42671 7.01333 8.93337 6.60667L11.02 4.94C11.2334 4.76667 11.5534 4.8 11.72 5.02C11.8934 5.23333 11.86 5.55333 11.6467 5.72667Z" fill="#8D8D8D"/>
</svg>
