<svg width="28" height="28" viewBox="0 0 28 28" fill="none" xmlns="http://www.w3.org/2000/svg">
<path d="M14.7906 23.2832C15.1111 23.3578 15.1404 23.7776 14.8282 23.8816V23.8816L12.9849 24.4883C8.35324 25.9816 5.91491 24.7333 4.40991 20.1016L2.91658 15.4933C1.42324 10.8616 2.65991 8.41164 7.29158 6.9183L8.07224 6.65977C8.4751 6.52636 8.86466 6.92948 8.74585 7.33689C8.66191 7.62474 8.58227 7.92854 8.50491 8.2483L7.36158 13.1366C6.07824 18.6316 7.95658 21.665 13.4516 22.9716L14.7906 23.2832Z" fill="#8D8D8D"/>
<path d="M20.0316 3.74503L18.0832 3.29003C14.1866 2.36836 11.8649 3.1267 10.4999 5.95003C10.1499 6.6617 9.86988 7.52503 9.63655 8.5167L8.49322 13.405C7.34988 18.2817 8.85488 20.685 13.7199 21.84L15.6799 22.3067C16.3566 22.47 16.9866 22.575 17.5699 22.6217C21.2099 22.9717 23.1466 21.2684 24.1266 17.0567L25.2699 12.18C26.4132 7.30336 24.9199 4.88836 20.0316 3.74503ZM17.8382 15.5517C17.7332 15.9484 17.3832 16.205 16.9866 16.205C16.9166 16.205 16.8466 16.1934 16.7649 16.1817L13.3699 15.3184C12.9032 15.2017 12.6232 14.7234 12.7399 14.2567C12.8566 13.79 13.3349 13.51 13.8016 13.6267L17.1966 14.49C17.6749 14.6067 17.9549 15.085 17.8382 15.5517ZM21.2565 11.6084C21.1515 12.005 20.8015 12.2617 20.4049 12.2617C20.3349 12.2617 20.2649 12.25 20.1832 12.2384L14.5249 10.8034C14.0582 10.6867 13.7782 10.2084 13.8949 9.7417C14.0116 9.27503 14.4899 8.99503 14.9566 9.1117L20.6149 10.5467C21.0932 10.6517 21.3732 11.13 21.2565 11.6084Z" fill="#8D8D8D"/>
</svg>
